<?xml version="1.0"?>
<!-- Generated by SVGo -->
<svg width="975" height="575"
     xmlns="http://www.w3.org/2000/svg"
     xmlns:xlink="http://www.w3.org/1999/xlink">
<rect x="0" y="0" width="975" height="575" style="fill:white" />
<g style="font-size:14pt;fill:rgb(150, 150, 150);text-anchor:middle">
<rect x="75" y="50" width="50" height="500" style="fill:rgb(100,200,200)" />
<text x="100" y="575" >Jan</text>
<rect x="150" y="250" width="50" height="300" style="fill:rgb(100,200,200)" />
<text x="175" y="575" >Feb</text>
<rect x="225" y="150" width="50" height="400" style="fill:rgb(100,200,200)" />
<text x="250" y="575" >Mar</text>
<rect x="300" y="300" width="50" height="250" style="fill:rgb(100,200,200)" />
<text x="325" y="575" >Apr</text>
<rect x="375" y="250" width="50" height="300" style="fill:rgb(100,200,200)" />
<text x="400" y="575" >May</text>
<rect x="450" y="200" width="50" height="350" style="fill:rgb(100,200,200)" />
<text x="475" y="575" >Jun</text>
<rect x="525" y="400" width="50" height="150" style="fill:rgb(100,200,200)" />
<text x="550" y="575" >Jul</text>
<rect x="600" y="500" width="50" height="50" style="fill:rgb(100,200,200)" />
<text x="625" y="575" >Aug</text>
<rect x="675" y="150" width="50" height="400" style="fill:rgb(100,200,200)" />
<text x="700" y="575" >Sep</text>
<rect x="750" y="200" width="50" height="350" style="fill:rgb(100,200,200)" />
<text x="775" y="575" >Oct</text>
<rect x="825" y="250" width="50" height="300" style="fill:rgb(100,200,200)" />
<text x="850" y="575" >Nov</text>
<rect x="900" y="150" width="50" height="400" style="fill:rgb(100,200,200)" />
<text x="925" y="575" >Des</text>
<text x="25" y="500" >5</text>
<text x="25" y="450" >10</text>
<text x="25" y="400" >15</text>
<text x="25" y="350" >20</text>
<text x="25" y="300" >25</text>
<text x="25" y="250" >30</text>
<text x="25" y="200" >35</text>
<text x="25" y="150" >40</text>
<text x="25" y="100" >45</text>
<text x="25" y="50" >50</text>
</g>
<line x1="50" y1="550" x2="50" y2="0" style="stroke: rgb(150, 150, 150); stroke-width:2" />
<line x1="50" y1="550" x2="975" y2="550" style="stroke: rgb(150, 150, 150); stroke-width:2" />
</svg>
