<?xml version="1.0"?>
<!-- Generated by SVGo -->
<svg width="1000" height="600"
     xmlns="http://www.w3.org/2000/svg"
     xmlns:xlink="http://www.w3.org/1999/xlink">
<rect x="0" y="0" width="1000" height="600" style="fill:white" />
<g style="font-size:14pt;fill:rgb(150, 150, 150);text-anchor:middle">
<rect x="100" y="38" width="50" height="500" style="fill:rgb(100,200,200)" />
<text x="125" y="575" >Jan</text>
<rect x="175" y="238" width="50" height="300" style="fill:rgb(100,200,200)" />
<text x="200" y="575" >Feb</text>
<rect x="250" y="138" width="50" height="400" style="fill:rgb(100,200,200)" />
<text x="275" y="575" >Mar</text>
<rect x="325" y="288" width="50" height="250" style="fill:rgb(100,200,200)" />
<text x="350" y="575" >Apr</text>
<rect x="400" y="238" width="50" height="300" style="fill:rgb(100,200,200)" />
<text x="425" y="575" >May</text>
<rect x="475" y="188" width="50" height="350" style="fill:rgb(100,200,200)" />
<text x="500" y="575" >Jun</text>
<rect x="550" y="388" width="50" height="150" style="fill:rgb(100,200,200)" />
<text x="575" y="575" >Jul</text>
<rect x="625" y="488" width="50" height="50" style="fill:rgb(100,200,200)" />
<text x="650" y="575" >Aug</text>
<rect x="700" y="138" width="50" height="400" style="fill:rgb(100,200,200)" />
<text x="725" y="575" >Sep</text>
<rect x="775" y="188" width="50" height="350" style="fill:rgb(100,200,200)" />
<text x="800" y="575" >Oct</text>
<rect x="850" y="238" width="50" height="300" style="fill:rgb(100,200,200)" />
<text x="875" y="575" >Nov</text>
<rect x="925" y="138" width="50" height="400" style="fill:rgb(100,200,200)" />
<text x="950" y="575" >Des</text>
<text x="37" y="493" >5</text>
<line x1="63" y1="488" x2="75" y2="488" style="stroke: rgb(150, 150, 150); stroke-width:2" />
<text x="37" y="443" >10</text>
<line x1="63" y1="438" x2="75" y2="438" style="stroke: rgb(150, 150, 150); stroke-width:2" />
<text x="37" y="393" >15</text>
<line x1="63" y1="388" x2="75" y2="388" style="stroke: rgb(150, 150, 150); stroke-width:2" />
<text x="37" y="343" >20</text>
<line x1="63" y1="338" x2="75" y2="338" style="stroke: rgb(150, 150, 150); stroke-width:2" />
<text x="37" y="293" >25</text>
<line x1="63" y1="288" x2="75" y2="288" style="stroke: rgb(150, 150, 150); stroke-width:2" />
<text x="37" y="243" >30</text>
<line x1="63" y1="238" x2="75" y2="238" style="stroke: rgb(150, 150, 150); stroke-width:2" />
<text x="37" y="193" >35</text>
<line x1="63" y1="188" x2="75" y2="188" style="stroke: rgb(150, 150, 150); stroke-width:2" />
<text x="37" y="143" >40</text>
<line x1="63" y1="138" x2="75" y2="138" style="stroke: rgb(150, 150, 150); stroke-width:2" />
<text x="37" y="93" >45</text>
<line x1="63" y1="88" x2="75" y2="88" style="stroke: rgb(150, 150, 150); stroke-width:2" />
<text x="37" y="43" >50</text>
<line x1="63" y1="38" x2="75" y2="38" style="stroke: rgb(150, 150, 150); stroke-width:2" />
</g>
<line x1="75" y1="538" x2="75" y2="0" style="stroke: rgb(150, 150, 150); stroke-width:2" />
<line x1="75" y1="538" x2="1000" y2="538" style="stroke: rgb(150, 150, 150); stroke-width:2" />
</svg>
